<mxfile host="app.diagrams.net" modified="2023-10-19T11:09:25.039Z" agent="Mozilla/5.0 (Windows NT 10.0; Win64; x64) AppleWebKit/537.36 (KHTML, like Gecko) Chrome/117.0.0.0 Safari/537.36" etag="Wo8D9wrB0ZWEt7E5D3gU" version="22.0.4" type="device">
  <diagram name="Page-1" id="RRHP-RadgEcTfMIu2Cxx">
    <mxGraphModel dx="1326" dy="692" grid="1" gridSize="10" guides="1" tooltips="1" connect="1" arrows="1" fold="1" page="1" pageScale="1" pageWidth="850" pageHeight="1100" background="#FFFFFF" math="0" shadow="0">
      <root>
        <mxCell id="0" />
        <mxCell id="1" parent="0" />
        <mxCell id="gyNArQcsoQi_ZB3or2st-24" value="" style="rounded=0;whiteSpace=wrap;html=1;" vertex="1" parent="1">
          <mxGeometry x="180" y="20" width="490" height="530" as="geometry" />
        </mxCell>
        <mxCell id="gyNArQcsoQi_ZB3or2st-5" style="edgeStyle=orthogonalEdgeStyle;rounded=0;orthogonalLoop=1;jettySize=auto;html=1;entryX=0.5;entryY=0;entryDx=0;entryDy=0;exitX=0.5;exitY=1;exitDx=0;exitDy=0;" edge="1" parent="1" source="gyNArQcsoQi_ZB3or2st-1" target="gyNArQcsoQi_ZB3or2st-4">
          <mxGeometry relative="1" as="geometry" />
        </mxCell>
        <mxCell id="gyNArQcsoQi_ZB3or2st-1" value="User" style="rounded=1;whiteSpace=wrap;html=1;" vertex="1" parent="1">
          <mxGeometry x="365" y="30" width="120" height="60" as="geometry" />
        </mxCell>
        <mxCell id="gyNArQcsoQi_ZB3or2st-15" style="edgeStyle=orthogonalEdgeStyle;rounded=0;orthogonalLoop=1;jettySize=auto;html=1;entryX=0;entryY=0.5;entryDx=0;entryDy=0;" edge="1" parent="1" source="gyNArQcsoQi_ZB3or2st-2" target="gyNArQcsoQi_ZB3or2st-8">
          <mxGeometry relative="1" as="geometry" />
        </mxCell>
        <mxCell id="gyNArQcsoQi_ZB3or2st-2" value="Cookie to browser" style="rounded=1;whiteSpace=wrap;html=1;" vertex="1" parent="1">
          <mxGeometry x="245" y="240" width="120" height="60" as="geometry" />
        </mxCell>
        <mxCell id="gyNArQcsoQi_ZB3or2st-19" style="edgeStyle=orthogonalEdgeStyle;rounded=0;orthogonalLoop=1;jettySize=auto;html=1;entryX=0.5;entryY=0;entryDx=0;entryDy=0;" edge="1" parent="1" source="gyNArQcsoQi_ZB3or2st-3" target="gyNArQcsoQi_ZB3or2st-8">
          <mxGeometry relative="1" as="geometry" />
        </mxCell>
        <mxCell id="gyNArQcsoQi_ZB3or2st-3" value="Data to Database" style="rounded=1;whiteSpace=wrap;html=1;" vertex="1" parent="1">
          <mxGeometry x="485" y="240" width="120" height="60" as="geometry" />
        </mxCell>
        <mxCell id="gyNArQcsoQi_ZB3or2st-6" style="edgeStyle=orthogonalEdgeStyle;rounded=0;orthogonalLoop=1;jettySize=auto;html=1;" edge="1" parent="1" source="gyNArQcsoQi_ZB3or2st-4" target="gyNArQcsoQi_ZB3or2st-3">
          <mxGeometry relative="1" as="geometry" />
        </mxCell>
        <mxCell id="gyNArQcsoQi_ZB3or2st-7" style="edgeStyle=orthogonalEdgeStyle;rounded=0;orthogonalLoop=1;jettySize=auto;html=1;" edge="1" parent="1" source="gyNArQcsoQi_ZB3or2st-4" target="gyNArQcsoQi_ZB3or2st-2">
          <mxGeometry relative="1" as="geometry" />
        </mxCell>
        <mxCell id="gyNArQcsoQi_ZB3or2st-4" value="User login" style="rounded=1;whiteSpace=wrap;html=1;" vertex="1" parent="1">
          <mxGeometry x="365" y="140" width="120" height="60" as="geometry" />
        </mxCell>
        <mxCell id="gyNArQcsoQi_ZB3or2st-16" style="edgeStyle=orthogonalEdgeStyle;rounded=0;orthogonalLoop=1;jettySize=auto;html=1;entryX=0.5;entryY=1;entryDx=0;entryDy=0;exitX=1;exitY=0.5;exitDx=0;exitDy=0;" edge="1" parent="1" source="gyNArQcsoQi_ZB3or2st-8" target="gyNArQcsoQi_ZB3or2st-3">
          <mxGeometry relative="1" as="geometry" />
        </mxCell>
        <mxCell id="gyNArQcsoQi_ZB3or2st-18" style="edgeStyle=orthogonalEdgeStyle;rounded=0;orthogonalLoop=1;jettySize=auto;html=1;" edge="1" parent="1" source="gyNArQcsoQi_ZB3or2st-8" target="gyNArQcsoQi_ZB3or2st-17">
          <mxGeometry relative="1" as="geometry" />
        </mxCell>
        <mxCell id="gyNArQcsoQi_ZB3or2st-8" value="Dashboard" style="rounded=1;whiteSpace=wrap;html=1;" vertex="1" parent="1">
          <mxGeometry x="365" y="350" width="120" height="60" as="geometry" />
        </mxCell>
        <mxCell id="gyNArQcsoQi_ZB3or2st-17" value="Data" style="rounded=1;whiteSpace=wrap;html=1;" vertex="1" parent="1">
          <mxGeometry x="365" y="470" width="120" height="60" as="geometry" />
        </mxCell>
        <mxCell id="gyNArQcsoQi_ZB3or2st-20" value="Accept" style="text;html=1;strokeColor=none;fillColor=none;align=center;verticalAlign=middle;whiteSpace=wrap;rounded=0;" vertex="1" parent="1">
          <mxGeometry x="425" y="300" width="60" height="30" as="geometry" />
        </mxCell>
        <mxCell id="gyNArQcsoQi_ZB3or2st-21" value="If accepted" style="text;html=1;strokeColor=none;fillColor=none;align=center;verticalAlign=middle;whiteSpace=wrap;rounded=0;" vertex="1" parent="1">
          <mxGeometry x="425" y="420" width="75" height="30" as="geometry" />
        </mxCell>
      </root>
    </mxGraphModel>
  </diagram>
</mxfile>
